<svg width="39" height="37" viewBox="0 0 39 37" fill="none" xmlns="http://www.w3.org/2000/svg">
<path d="M35.2481 36.1861H3.7519C1.67848 36.1861 0 34.5076 0 32.4342V3.80127C0 1.67848 1.67848 0 3.7519 0H35.1987C37.3215 0 39 1.67848 39 3.7519V32.3848C39 34.4582 37.3215 36.1861 35.2481 36.1861Z" fill="black"/>
<path d="M19.5 7.40506C22.9556 7.40506 23.4 7.40506 24.7822 7.5038C26.0658 7.55316 26.7569 7.75063 27.2012 7.9481C27.7936 8.19494 28.2379 8.49114 28.6822 8.93544C29.1265 9.37975 29.4227 9.82405 29.6696 10.4165C29.867 10.8608 30.0645 11.5519 30.1139 12.8354C30.1632 14.2177 30.2126 14.6127 30.2126 18.1177C30.2126 21.5734 30.2126 22.0177 30.1139 23.4C30.0645 24.6835 29.867 25.3747 29.6696 25.819C29.4227 26.4114 29.1265 26.8557 28.6822 27.3C28.2379 27.7443 27.7936 28.0405 27.2012 28.2873C26.7569 28.4848 26.0658 28.6823 24.7822 28.7316C23.4 28.781 23.005 28.8304 19.5 28.8304C15.9949 28.8304 15.6 28.8304 14.2177 28.7316C12.9341 28.6823 12.243 28.4848 11.7987 28.2873C11.2063 28.0405 10.762 27.7443 10.3177 27.3C9.87337 26.8557 9.57717 26.4114 9.33033 25.819C9.13286 25.3747 8.9354 24.6835 8.88603 23.4C8.83666 22.0177 8.78729 21.6228 8.78729 18.1177C8.78729 14.662 8.78729 14.2177 8.88603 12.8354C8.9354 11.5519 9.13286 10.8608 9.33033 10.4165C9.57717 9.82405 9.87337 9.37975 10.3177 8.93544C10.762 8.49114 11.2063 8.19494 11.7987 7.9481C12.243 7.75063 12.9341 7.55316 14.2177 7.5038C15.6 7.40506 16.0443 7.40506 19.5 7.40506ZM19.5 5.03544C15.9455 5.03544 15.5012 5.03544 14.1189 5.13418C12.7367 5.18354 11.7987 5.43038 10.9594 5.72658C10.1202 6.07215 9.3797 6.51646 8.63919 7.20759C7.89869 7.9481 7.45438 8.63924 7.15818 9.52785C6.81261 10.3671 6.61514 11.3051 6.56578 12.6873C6.51641 14.0696 6.46704 14.5139 6.46704 18.0684C6.46704 21.6228 6.46704 22.0671 6.56578 23.4494C6.61514 24.8316 6.86198 25.7696 7.15818 26.6089C7.50375 27.4481 7.94805 28.1886 8.63919 28.9291C9.3797 29.6696 10.0708 30.1139 10.9594 30.4101C11.7987 30.7557 12.7367 30.9532 14.1189 31.0025C15.5012 31.1013 15.9455 31.1013 19.5 31.1013C23.0544 31.1013 23.4987 31.1013 24.881 31.0025C26.2632 30.9532 27.2012 30.7063 28.0405 30.4101C28.8797 30.0646 29.6202 29.6203 30.3607 28.9291C31.1012 28.1886 31.5455 27.4975 31.8417 26.6089C32.1873 25.7696 32.3848 24.8316 32.4341 23.4494C32.4835 22.0671 32.5329 21.6228 32.5329 18.0684C32.5329 14.5139 32.5329 14.0696 32.4341 12.6873C32.3848 11.3051 32.1379 10.3671 31.8417 9.52785C31.4962 8.68861 31.0519 7.9481 30.3607 7.20759C29.6202 6.46709 28.9291 6.02278 28.0405 5.72658C27.2012 5.38101 26.2632 5.18354 24.881 5.13418C23.4987 5.08481 23.0544 5.03544 19.5 5.03544Z" fill="white"/>
<path d="M19.5001 11.4038C15.7975 11.4038 12.7861 14.4152 12.7861 18.1177C12.7861 21.8203 15.7975 24.8316 19.5001 24.8316C23.2026 24.8316 26.214 21.8203 26.214 18.1177C26.214 14.3658 23.2026 11.4038 19.5001 11.4038ZM19.5001 22.4127C17.0811 22.4127 15.1558 20.4873 15.1558 18.0684C15.1558 15.6494 17.0811 13.724 19.5001 13.724C21.919 13.724 23.8444 15.6494 23.8444 18.0684C23.8444 20.4873 21.919 22.4127 19.5001 22.4127Z" fill="white"/>
<path d="M28.0405 11.1076C28.0405 11.9468 27.3493 12.6873 26.4607 12.6873C25.5721 12.6873 24.881 11.9962 24.881 11.1076C24.881 10.2684 25.5721 9.52785 26.4607 9.52785C27.3 9.57721 28.0405 10.2684 28.0405 11.1076Z" fill="white"/>
</svg>
