<svg width="38" height="36" viewBox="0 0 38 36" fill="none" xmlns="http://www.w3.org/2000/svg">
<path d="M34.1914 35.1H3.68216C1.67371 35.1 0 33.4741 0 31.4178V3.68215C0 1.67371 1.62589 0 3.68216 0H34.1914C36.1999 0 37.8736 1.62589 37.8736 3.68215V31.4178C37.8258 33.4263 36.1999 35.1 34.1914 35.1Z" fill="black"/>
<path fill-rule="evenodd" clip-rule="evenodd" d="M30.2702 14.8242C28.9791 9.51621 24.4362 5.88188 18.889 5.83406C18.1717 5.88188 17.3588 5.9297 16.6415 6.07316C8.89462 7.6034 4.92555 16.1632 8.65552 23.0493C8.79898 23.2406 8.79897 23.4319 8.75115 23.6232C8.22513 25.3925 7.69912 27.2575 7.22092 29.0268C7.12528 29.3616 7.12528 29.3616 7.46002 29.2659C9.37283 28.7399 11.2378 28.2617 13.1028 27.8313C13.2463 27.7835 13.3897 27.7835 13.5332 27.8792C15.972 29.1225 18.5065 29.4572 21.1844 28.9312C27.5923 27.6879 31.8005 21.1365 30.2702 14.8242ZM20.5149 27.0184C19.9411 27.114 19.4151 27.1618 19.176 27.114C17.1197 27.114 15.446 26.6836 13.9157 25.7751C13.6766 25.6316 13.5332 25.5838 13.3419 25.6794C12.2898 25.9185 11.2378 26.2054 10.2336 26.4924C10.0423 26.5402 9.99448 26.5402 10.0423 26.3011C10.3292 25.3447 10.5683 24.3405 10.9031 23.3362C10.9509 23.0493 10.9509 22.858 10.7596 22.6668C8.65552 19.2237 8.75117 14.9677 11.0944 11.8116C13.581 8.51199 16.9284 7.17302 20.9453 8.03378C24.9144 8.84673 27.4488 11.429 28.3574 15.3981C29.6007 20.8018 25.9664 26.1576 20.5149 27.0184Z" fill="white"/>
<path fill-rule="evenodd" clip-rule="evenodd" d="M21.9495 23.0493C21.5191 23.0971 21.1365 23.0015 20.754 22.858C18.076 22.0929 16.0676 20.467 14.4417 18.2195C13.8201 17.4065 13.2462 16.498 13.1027 15.4937C12.8636 14.2982 13.2462 13.1984 14.1548 12.3854C14.4417 12.0985 15.3503 11.955 15.7329 12.1463C15.8285 12.242 15.9241 12.3376 15.972 12.4811C16.3067 13.294 16.6414 14.0591 16.9762 14.8721C17.024 15.0155 17.024 15.2068 16.9284 15.3503C16.7371 15.685 16.498 16.0198 16.2111 16.3067C15.972 16.498 15.972 16.7371 16.1632 16.9283C17.1196 18.5064 18.4108 19.6541 20.1323 20.3236C20.3714 20.4192 20.5627 20.3714 20.754 20.1801C21.0409 19.8454 21.3278 19.4628 21.6147 19.0802C21.806 18.8411 21.9973 18.7933 22.2842 18.889C22.8581 19.1759 23.4319 19.415 23.9579 19.6541C24.1014 19.7019 24.197 19.7975 24.3405 19.8454C24.9143 20.1323 24.9143 20.1801 24.8665 20.8018C24.7709 21.9973 23.8623 22.6189 22.8102 22.9537C22.4277 23.0971 22.1886 23.0971 21.9495 23.0493Z" fill="white"/>
</svg>
